<?xml version="1.0" encoding="utf-8"?>
<!-- Generator: Adobe Illustrator 27.0.0, SVG Export Plug-In . SVG Version: 6.00 Build 0)  -->
<svg version="1.1" id="Layer_1" xmlns="http://www.w3.org/2000/svg" xmlns:xlink="http://www.w3.org/1999/xlink" x="0px" y="0px"
	 viewBox="0 0 225 225" style="enable-background:new 0 0 225 225;" xml:space="preserve">
<style type="text/css">
	.st0{fill:#282425;}
	.st1{fill:#067A48;}
	.st2{fill:#067946;}
	.st3{fill:#272324;}
	.st4{fill:#EA242B;}
	.st5{fill:#EA3F40;}
	.st6{fill:#FBDACD;}
	.st7{fill:#F7C0AB;}
	.st8{fill:#898A8A;}
	.st9{fill:#F9CEBD;}
	.st10{fill:#EA5350;}
	.st11{fill:#EE9C8C;}
	.st12{fill:#F16C65;}
	.st13{fill:#F28479;}
	.st14{fill:#312A29;}
	.st15{fill:#FCFDFC;}
</style>
<g>
	<path class="st0" d="M6.9,215.3c2-4.1,3.8-7.5,5.4-10.8c12.6-25.7,21.8-52.5,25.8-80.9c2.6-18.5,2.9-36.9-0.4-55.4
		c-0.3-1.7-2.2-4.2-0.6-4.8c1.9-0.8,2.9,2.2,4.1,3.6c7.1,8.6,15.5,15.8,23.4,23.6c3.7,3.7,7.1,7.7,10.3,11.8
		c10.2,12.8,10.1,26.4,3,40.5c-7.9,15.6-20.3,27.2-34,37.6c-1.9,1.4-3.5,3.5-6.9,3.8c8.2-7.8,15.4-15.6,21.3-24.6
		c6.1-9.4,10.9-19.3,10.4-31c-0.2-5.5-1.8-10.5-5.5-14.7c-1-1.1-2.2-2.3-3.8-1.8c-1.4,0.5-1.8,1.9-2.2,3.3
		c-5.1,20.8-14.3,40-24.3,58.8c-6.9,13.1-14.6,25.7-22.7,38.1C9.6,213.2,9.3,214.5,6.9,215.3z"/>
	<path class="st1" d="M217.3,218.5c-6.4-8.4-11.7-17.5-17.1-26.6c-13.5-22.9-25.7-46.4-33.1-72c-0.4-1.4-0.7-2.9-1.1-4.3
		c-0.4-1.3-0.7-2.8-2.3-3.2c-1.7-0.4-2.9,0.7-3.8,1.9c-4.8,6-6.1,13-5.2,20.4c1.6,12.7,8.1,23.1,15.8,32.9c3.1,3.9,6.6,7.5,9.8,11.2
		c0.5,0.6,1.7,1.2,1,2.1c-0.7,1-1.6,0.2-2.2-0.4c-15.3-11.9-29.3-24.8-36.4-43.5c-4.3-11.3-3.1-21.8,3.9-31.9
		c5.9-8.6,13.4-15.7,20.9-22.8c6.3-6,12.5-12.2,17.7-19.2c0.3-0.4,0.7-0.6,1.7-1.5c-0.6,3.3-1.2,5.8-1.6,8.3
		c-4.5,26.8-1.8,53.1,4.8,79.1c5.8,23.1,15,45,26.1,66c0.5,1,0.9,2,1.3,3C217.5,218.3,217.4,218.4,217.3,218.5z"/>
	<path class="st2" d="M100.8,117.7c-2.7-0.3-5.4,0.3-8.1-0.8c-2.1-0.9-1-1.5-0.1-2.3c4.5,0.1,8.6-1.2,12.7-2.9
		c2.2-0.2,4.1-1.2,6-2.4c4-1.1,7.7-3.1,11.1-5.3c11-6,20.6-13.8,29.1-22.9c11-10.6,19.4-23.2,27.7-36.6c-6.4-1-11.3-4-15-9
		c-4.1-5.6-5.8-11.8-4.6-18.7c1.6-9.3,9.9-13.6,18.5-9.9c10.1,4.3,16.1,17.8,12.7,28.1c-0.9,2.9-3,5-5.3,7.7c3.9,0.4,6.8-1,10.4-2.3
		c-2.3,4.8-5,8.5-7.6,12.3c-10.2,14.4-22.2,27.2-36.1,38c-0.6,0.5-1.1,1-1.6,1.5c-0.2,0.2-0.3,0.5-0.5,0.7c0,0,0-0.1,0-0.1
		c-10.2,6.6-20.4,13.3-31.4,18.7c-2.4,0.7-4.7,1.5-6.8,2.8C108.3,115.9,104.5,116.8,100.8,117.7z"/>
	<path class="st3" d="M111.3,109.3c-1.9,1.1-3.8,2.1-6,2.4c-3.5-1.8-7-3.5-10.5-5.3c-1.5-0.9-3-1.8-4.5-2.7c-1.5-0.9-3-1.7-4.4-2.6
		c-2.9-2-5.9-4-8.8-6C59.4,81.8,44,66.4,31.9,47.8c-1-1.6-2-3.1-3-4.7c-0.5-0.7-0.9-1.5-1.5-2.5c3.4,0.3,6.2,2.5,9.5,1.9
		c0.6-1.2-0.5-1.6-1-2.1c-5.4-6-5.5-12.9-3-19.9C35.6,12.9,40.4,7,48.7,5.5c9.1-1.7,15.6,4.9,15.4,15C63.8,31.7,57,40.5,45.9,43.5
		c-2.4,0.7-1.1,1.6-0.5,2.5c8,13.5,17.4,26.1,28.6,37.2c3.5,3.4,7.1,6.8,11,9.7c2.6,2.2,5.1,4.5,8.2,6c1.5,1.3,3.1,2.5,4.9,3.1
		c1.1,1,2.3,1.9,3.8,2.2c2.7,2.1,5.8,3.5,9.1,4.5C111.2,108.9,111.2,109.1,111.3,109.3z"/>
	<path class="st4" d="M151.6,81c-8.5,9.2-18.2,16.9-29.1,22.9c-0.1-2.3,1.7-3.6,2.7-5.4c1.1-2,2.9-3.7,2.5-6.2
		c1.8,0.2,2.9-0.3,2.8-2.3c0-1.7,0.5-2.2,2.5-2c1.8,0.3,4.9,2,5.4-0.3c0.4-2.1-3.2-1-4.7-2.1c0-0.8,0-1.6,0-2.4
		c1.8,0.2,3.6,0.5,5.4,0.7c0.9,0.1,2.1,0.6,2.4-0.8c0.3-1.5-1-1.4-1.8-1.7c-1.3-0.3-2.6-0.5-3.9-0.8c1.4-4.1,2.7-8.2,2.5-12.7
		c-0.1-3.4-0.1-6.9,0.9-10.2C146.7,63.7,150.5,71.6,151.6,81z"/>
	<path class="st4" d="M118.8,111.6c11-5.4,21.1-12.1,31.4-18.7c-1.2,7.4-5.5,13-11,17.7c-2.1,1.8-4.2,3.7-6.9,4.7
		C127.8,113.7,123,113.8,118.8,111.6z"/>
	<path class="st5" d="M139.1,57.8c-1,3.3-1.1,6.8-0.9,10.2c0.2,4.5-1,8.6-2.5,12.7c-2.4-0.4-4.9-0.8-7.3-1.2
		c0.2-1.6,0.5-3.3,0.7-4.9c2.8-1,1.8-3.6,1.8-5.4c0.1-2.6-2.9-1-4.1-2.1c0-0.3,0-0.6,0-0.9c1.2-0.8,4.2,1.4,3.6-2.2
		c2.6-0.6,1.7-2.6,1.4-4.1c-0.4-2.3-1.2-4.5,0.5-6.5C134.8,54.5,137.5,55.4,139.1,57.8z"/>
	<path class="st4" d="M95.7,50.9c-1.2-1.2-4-1.5-3.2-3.9c0.8-2.1,3-2.7,5.2-2.7c0.8,0.6-0.4,1.8,0.9,2.5c2.8,1.5,5.6,2.9,9,2.3
		c2.4,0,4.8,0,7.2,0c5.3,0.6,10.4,0.3,13.6-4.9c0.8,0.2,1.7,0.3,2.5,0.6c1.3,0.5,2.6,1.1,2.8,2.6c0.2,1.5-1.1,2-2.1,2.7
		c-0.4,0.3-0.7,0.6-1.1,0.9c-1.5,0.9-3.6,0.2-5,1.6c-2,0.3-4.1-0.6-6,0.6c-1.5,0-3,0.1-4.4,0.1c-1.2,0-2.5,0-3.7,0
		C106,52.9,100.7,52.8,95.7,50.9z"/>
	<path class="st6" d="M76.1,75.8c0.8-3.6,1.1-7.3,6.2-7.9c2.4-0.3,3.8-2.6,3.5-5.4c-0.5-4,1.8-5.9,5.2-6.9c1.3,1.7,2,3.6,2.5,5.6
		c0,3.1,0,6.3,0,9.4c-0.9,0-1.9-0.2-2.5,0.5C87.1,76.1,81.7,76,76.1,75.8z"/>
	<path class="st7" d="M95.7,50.9c5,1.9,10.3,2.1,15.5,2.5c-0.7,2.7,1.5,5.8-1.3,8.2c-0.5-1.8-2.2-1.5-3-1c-2.3,1.5,0,4.3-1.4,6.4
		c-3.2-1.8-4.6-5.8-8.5-6.2c0.1-2.9-2.2-5.2-2.2-8.1C95.5,52.2,95.6,51.5,95.7,50.9z"/>
	<path class="st8" d="M160.5,187c3.4-0.8,3.9-3.3,5.6-4.4c0.8-0.6,1.7-2.1,2.8-1c1.2,1.1-0.1,2.3-0.9,3.2c-0.6,0.7-1.5,1.2-2.3,1.9
		c-0.6,0.5-1.2,1.2-0.4,1.8c0.9,0.7,1.8,1.2,0.4,2.1c-1,0.7-2.1,0.7-3-0.4c-0.4-0.6-0.8-1.6-1.6-1.2c-4.2,2.1-3.3,0-2.2-2.5
		c0.4-1-0.5-1.3-1.3-1c-0.9,0.4-1.6,0.8-2.7,1c-2.8,0.3-3.8-0.7-3.2-3.4c0.6-2.6,3-3.6,5-4.4c1.4-0.6,2.4,1.1,2.3,2.9
		c-0.1,0.9,0.8,1.2,1.2,0.7c1-1,3.3-1.5,2-3.6c-0.6-1-1.2-1.8,0-2.4c1.3-0.7,2.7,0.2,3.8,0.7c1,0.4,0.6,1.9-0.2,2.6
		C163.8,181.4,162.5,183.9,160.5,187z"/>
	<path class="st9" d="M76.1,75.8c5.5,0.3,11,0.3,14.9-4.7c0.6-0.7,1.6-0.5,2.5-0.5c0.6,1.2-0.2,3.3,2.2,3.3
		c-0.1,1.4-0.1,2.9-0.2,4.3c-4.3,0.4-8.8,0.3-11.5,4.6c-3-0.8-6-1.4-9.2-1.6C75.6,79.4,75,77.3,76.1,75.8z"/>
	<path class="st8" d="M93.6,180.7c-1.9,3-4.9,1.4-7.5,1.7c-0.4,0.1-1.3-0.8-1.5,0c-1.2,3.6-3.3,3.2-5.8,1.4c-1-0.7-1.6,0-2.1,0.7
		c-0.7,0.8-0.9,2.1-2.6,2.4c0.9-1.8-1.9-2.3-1-4.5c1.5-3.7,4.5-1.8,5.9-1.2c2.3,1,2.8-0.2,3.8-1.4c1.8-2.2,3.5-4.5,4-7.4
		c0.2-0.8,0.3-2,1.8-2.2c0.4,2.8-1.3,5.2-1.3,7.9c0,0.8-0.5,1.9,0.6,2.2c1.1,0.3,1.3-0.8,1.6-1.6c0.1-0.2,0.1-0.5,0.2-0.7
		c0.8-1.3,1-4,2.8-3.2c2,0.9-0.1,2.7-0.8,4c-1.2,2.2,0.4,1.5,1.4,1.5C93.3,180.4,93.4,180.5,93.6,180.7z"/>
	<path class="st10" d="M94.8,106.4c3.5,1.8,7,3.5,10.5,5.3c-4.1,1.7-8.2,3-12.7,2.9c-1.8-1.5-3.6-3-5.3-4.5
		C89.4,108.1,93,109,94.8,106.4z"/>
	<path class="st7" d="M74.8,81c3.1,0.2,6.2,0.8,9.2,1.6c-1,3.1-0.2,5.6,2.6,7.5c0.1,1.3-0.2,2.3-1.5,2.8c-4-2.9-7.5-6.3-11-9.7
		C74.8,82.7,74.6,81.8,74.8,81z"/>
	<path class="st0" d="M118.8,111.6c4.2,2.2,9.1,2.1,13.5,3.7c-1.6,1.7-3.8,2.1-6,2.3c-4.6-0.3-9.1-1.4-13.5-2.9
		c-0.3-0.1-0.5-0.2-0.8-0.3C114.1,113.1,116.4,112.3,118.8,111.6z"/>
	<path class="st10" d="M125.4,52.6c1.4-1.3,3.5-0.6,5-1.6c0.6,0.7,1.3,1.4,1.9,2.1c-1.7,2.1-0.9,4.3-0.5,6.5
		c0.3,1.5,1.2,3.5-1.4,4.1c-1.5-0.9-2.9-1.8-4.4-2.6C126.6,58.3,124.9,55.5,125.4,52.6z"/>
	<path class="st9" d="M114.8,49.1c-2.4,0-4.8,0-7.2,0c-2-2.4-5.2-3.3-6.9-6c1.9-0.9,3.2,0.4,4.7,1.3c4.2,2.4,9.2,2.1,12.6-0.8
		c1-0.3,2-0.5,3-0.8c0.3,0.1,0.5,0.1,0.8,0.2c-0.2,1.7-1.5,2.5-2.7,3.4C117.8,47.5,115.6,47.1,114.8,49.1z"/>
	<path class="st8" d="M57,179.4c1.1,3.5,1.7,6.5,0.9,10c-2.2-1.3-0.5-3.4-1.7-4.9c-1.5,0.8-2.2,3.3-4.9,2.8
		c-0.9-0.2-0.3,1.9-0.3,2.9c0.1,0.7,0.1,1.3-0.7,1.5c-0.9,0.2-0.9-0.7-1-1.2c-0.4-3.2-2-6.3-0.6-10c2.2,1.4,1.7,5.3,4.3,4.8
		C55.4,184.8,55.2,181.5,57,179.4z"/>
	<path class="st11" d="M114.8,49.1c0.7-2,2.9-1.6,4.3-2.7c1.2-0.9,2.5-1.8,2.7-3.4c2.3-0.3,4.5,0.2,6.6,1.1
		C125.2,49.5,120.2,49.7,114.8,49.1z"/>
	<path class="st4" d="M112.7,114.7c4.4,1.5,8.9,2.5,13.5,2.9c-5.2,2.6-10.9,2.3-16.5,2.1C109.8,117.5,112.6,116.9,112.7,114.7z"/>
	<path class="st8" d="M138.6,172.8c-2.3,1.9-1.9,4.1-1,6.3c0.7,1.9-1.3,2.7-1.6,2.3c-2-2.9-3.4,0.6-5,0.3
		C130.8,177.8,133.4,174.5,138.6,172.8z"/>
	<path class="st8" d="M121.6,165c0.8,2.4-0.1,4.3-1.2,5.8c-1.8,2.3-0.7,4.2,0.1,6.3c0.3,0.8,2.4,1.1,0.8,2.5c-1.4,1.3-2.8,0-4.2-0.1
		c-1.1-0.1-1.5-1.5-1.3-2.7c0.1-0.7,0.6-1.4,0.9-2C118.3,171.5,120,168.2,121.6,165z"/>
	<path class="st8" d="M93.2,180.2c0.8-1.9,1.6-3.7,2.6-6.1c0.8,1.2,0.7,2.1,0.6,3c-0.1,0.9-0.8,2.1,0.7,2.4c1.2,0.3,1.7-0.8,2.2-1.6
		c0.3-0.5,0.5-1.1,0.7-1.7c0.4-0.9,0.6-2.2,1.9-1.8c1.2,0.4,0.8,1.6,0.3,2.5c-1.7,2.7,0.8,1.6,1.7,1.9l-0.1-0.1
		c-0.5,1.8-1.6,2.8-3.5,2c-0.4-0.2-1-0.7-1.3-0.2c-1.8,2.3-3.6,0.7-5.3,0.1C93.4,180.5,93.3,180.4,93.2,180.2z"/>
	<path class="st8" d="M148.1,178.3c2.5,0.9,1.2,3.2,1.3,4.7c0.1,0.9-1.5,3.1-3.3,0.7c-0.4-0.6-1.1,1.3-2.3,0.7
		c0.9-2.6-1.1-5.9,2.2-7.9c0.5-0.3,0.9-1.1,1.5-0.4c0.3,0.3,0,1.1,0,1.7c-0.2,0.5-1.2,1.1-0.4,1.6
		C147.6,179.7,147.8,178.8,148.1,178.3z"/>
	<path class="st8" d="M103.8,178.9c-0.4-1.4,0.8-1.9,1.5-2.7c1-1.3,1.8-3.2,4-2.5c1.9,0.6,0.7,2.3,1,3.5c0.6,3-2.1,2.9-3.5,3.8
		C104.5,182.2,104.8,179.4,103.8,178.9C103.7,178.8,103.8,178.9,103.8,178.9z"/>
	<path class="st12" d="M94.8,106.4c-1.8,2.7-5.4,1.8-7.5,3.8c-1-1-2-2-3-3c0.1-1.5,1.4-1.2,2.3-1.7c1.2-0.7,3.1,0.1,3.6-1.7
		C91.8,104.6,93.3,105.5,94.8,106.4z"/>
	<path class="st8" d="M125.6,180.7c-0.6,0.2-1.7,1.2-1.6,0.1c0.1-1.8-1.5-3.5-0.3-5.1c0.8-1,0.9-3.2,2.9-2.6
		c2.8,0.8,2.8,3.3,2.6,5.5C128.9,180.7,127.7,181.7,125.6,180.7z M126.7,175.3c-0.1,0.1-0.4,0.2-0.4,0.4c0,0.2,0.1,0.4,0.2,0.6
		c0.1-0.1,0.3-0.2,0.4-0.4C126.8,175.7,126.7,175.5,126.7,175.3z"/>
	<path class="st11" d="M100.7,43.1c1.8,2.6,5,3.6,6.9,6c-3.3,0.6-6.1-0.8-9-2.3c-1.3-0.7-0.1-1.9-0.9-2.5
		C98.3,42.8,99.5,42.9,100.7,43.1z"/>
	<path class="st13" d="M90.3,103.7c-0.6,1.9-2.5,1.1-3.6,1.7c-0.9,0.5-2.2,0.2-2.3,1.7c-1.3-1-2.7-1.9-3-3.7
		c0.5-2.7,3.3-0.9,4.5-2.3C87.3,102,88.8,102.8,90.3,103.7z"/>
	<path class="st5" d="M112.7,114.7c-0.1,2.2-2.9,2.7-3,4.9c-3.1-0.1-6.2-0.5-9-2c3.8-0.9,7.6-1.7,11.2-3.3
		C112.2,114.5,112.5,114.6,112.7,114.7z"/>
	<path class="st9" d="M94.8,52.6c0,2.9,2.4,5.2,2.2,8.1c-1.2,0.1-2.4,0.3-3.6,0.4c-0.5-2-1.2-4-2.5-5.6
		C91.9,54.1,93.5,53.5,94.8,52.6z"/>
	<path class="st11" d="M85.8,101.1c-1.2,1.4-4-0.4-4.5,2.3c-2.3-2.3-3.5-5.2-4.3-8.3C80,97.1,82.9,99.1,85.8,101.1z"/>
	<path class="st8" d="M67.1,185.5c-0.7,0.6-0.3,3.9-2.6,0.9c-0.5-0.7-1.6,1-1.8,2.1c-0.2,0.8-0.7,1.5-1.5,1.3
		c-1.2-0.2-1-1.4-0.9-2.1c0.4-2.6,2.6-3.7,4.6-5C64.5,184.6,64.1,186.5,67.1,185.5L67.1,185.5z"/>
	<path class="st8" d="M99.8,167.8c-0.5,2.5-1.5,4.2-3.2,5.6c-0.1,0.1-1.1-0.6-0.8-1.3c0.8-1.9,1-4.2,3.1-5.2
		C99.4,166.6,99.9,167.5,99.8,167.8z"/>
	<path class="st6" d="M121,42.8c-1,0.3-2,0.5-3,0.8c-3.9-1.7-8-0.2-11.9-0.9C107.5,41.8,118.2,41.8,121,42.8z"/>
	<path class="st8" d="M67.1,185.6c1.4-3.3,3.3-0.3,5.2-0.5C70.7,188.2,68.7,184.4,67.1,185.6C67.1,185.5,67.1,185.6,67.1,185.6z"/>
	<path class="st1" d="M217.5,218.2c0.2,0.4,0.4,0.8,0.5,1.2c0,0.1-0.3,0.2-0.4,0.4c-0.1-0.4-0.2-0.9-0.4-1.3
		C217.4,218.4,217.5,218.3,217.5,218.2z"/>
	<path class="st4" d="M150.1,93c0.2-0.2,0.3-0.5,0.5-0.7C150.6,92.6,150.7,93,150.1,93z"/>
	<path class="st5" d="M127.7,92.4c0.4,2.6-1.4,4.3-2.5,6.2c-1,1.7-2.8,3.1-2.7,5.4c-3.5,2.3-7.1,4.2-11.1,5.3
		c-0.1-0.2-0.1-0.4-0.1-0.6c0.1-1.5,1.2-2.3,2.3-3.2c4.8-3.9,8.3-9,11.3-14.4C125.7,91.6,126.7,92,127.7,92.4z"/>
	<path class="st10" d="M124.8,91.2c-3.1,5.4-6.5,10.4-11.3,14.4c-1.1,0.9-2.2,1.6-2.3,3.2c-3.3-1-6.4-2.4-9.1-4.5
		c2.7-2.3,5.4-4.5,8-6.9c1.9-1.7,3.9-3.4,4.3-6.2c4-1.6,8.9-2.5,8.1-8.6c1.3-2.7,2.6-5.5,2.3-8.6c1.6-0.9,3.1-0.9,4.4,0.5
		c-0.2,1.6-0.5,3.3-0.7,4.9c-2.2,0.1-1.9,1.9-2.1,3.2C125.7,85.5,125.3,88.3,124.8,91.2z"/>
	<path class="st11" d="M85.1,92.9c1.3-0.5,1.6-1.6,1.5-2.8c4.1,1.8,8.2,1.7,12.1-0.3c1.3-0.6,3.9-1.3,2.1-3.9c0.1-1,0.1-2.1,0.2-3.1
		c0.2-0.3,0.3-0.7,0.5-1c1.2-0.3,2.4-0.6,3.5-0.9c0.8,3.2-0.8,6.3-0.3,9.5c-2.8,4.1-7.6,5.6-11.4,8.4C90.2,97.4,87.6,95.1,85.1,92.9
		z"/>
	<path class="st13" d="M93.3,98.9c3.8-2.8,8.6-4.3,11.4-8.4c1.7,0.3,3.4,0.6,5.1,1c0.2,1.5-0.7,2.5-1.6,3.5c-2.8,3-6.3,5.1-9.9,7.1
		C96.3,101.4,94.7,100.2,93.3,98.9z"/>
	<path class="st12" d="M98.2,102c3.6-1.9,7-4.1,9.9-7.1c1-1,1.8-2,1.6-3.5c1.5-1.2,3.1,0.5,4.6-0.2c-0.4,2.8-2.4,4.5-4.3,6.2
		c-2.6,2.4-5.3,4.6-8,6.9C100.5,103.9,99.3,103.1,98.2,102z"/>
	<path class="st2" d="M124.8,91.2c0.5-2.9,0.9-5.7,1.5-8.6c0.3-1.3-0.1-3.1,2.1-3.2c2.4,0.4,4.9,0.8,7.3,1.2
		c1.3,0.3,2.6,0.5,3.9,0.8c0.9,0.2,2.2,0.2,1.8,1.7c-0.3,1.4-1.5,0.9-2.4,0.8c-1.8-0.2-3.6-0.5-5.4-0.7c-1-0.5-2-1.1-2.3,0.7
		c-0.3,1.9,1.1,1.7,2.3,1.7c1.5,1.2,5.2,0.1,4.7,2.1c-0.5,2.3-3.5,0.6-5.4,0.3c-1.9-0.3-2.5,0.2-2.5,2c0,2-1.1,2.5-2.8,2.3
		C126.7,92,125.7,91.6,124.8,91.2z"/>
	<path class="st5" d="M133.6,85.6c-1.2-0.1-2.6,0.2-2.3-1.7c0.3-1.8,1.3-1.2,2.3-0.7C133.6,84,133.6,84.8,133.6,85.6z"/>
	<path class="st14" d="M129.1,74.5c-1.3-1.5-2.8-1.5-4.4-0.5c-2.2-0.1-4.5,0.4-6.6-0.8c-1.6-1.1-3.3-2.2-4.4-3.9
		c-0.4-2.6,0.2-5,2.1-6.9c1.2-0.5,2.5-1.1,3.7-1.6c2.2,0.1,4.4,0.3,6.6,0.4c1.5,0.9,2.9,1.8,4.4,2.6c0.6,3.7-2.4,1.5-3.6,2.2
		c-0.6-0.7-1-1.5-1.7-1.9c-1.9-1.2-3.8-1.4-5.4,0.4c-1.5,1.7-1.7,3.8-0.1,5.4c1.6,1.7,3.5,2.1,5.5,0.2c-1-0.8-3.3,0.2-2.8-2.1
		c0.4-1.9,1.9-1,3-1c0.5,0,1,0,1.5-0.1c1.2,1.1,4.1-0.5,4.1,2.1C130.9,70.9,131.9,73.5,129.1,74.5z"/>
	<path class="st12" d="M126.9,67c-0.5,0-1,0-1.5,0.1c-1.1,0.1-2.6-0.9-3,1c-0.5,2.3,1.8,1.3,2.8,2.1c-2,1.9-3.9,1.5-5.5-0.2
		c-1.6-1.7-1.4-3.7,0.1-5.4c1.6-1.8,3.5-1.7,5.4-0.4c0.7,0.5,1.2,1.3,1.7,1.9C126.9,66.4,126.9,66.7,126.9,67z"/>
	<path class="st11" d="M115.7,62.4c-1.9,2-2.5,4.3-2.1,6.9c-0.2,3-2.1,5.6-1.7,8.7c-2-0.1-4-0.1-6-0.2c0.3-1.5,0.5-3,0.8-4.4
		c2.9,0,3.7-1.3,3.3-4.2c-0.4-2.5-0.1-5.2-0.1-7.7c2.8-2.3,0.6-5.5,1.3-8.2c1.2,0,2.5,0,3.7,0C115.2,56.3,114.3,59.5,115.7,62.4z"/>
	<path class="st12" d="M126.1,61.2c-2.2-0.1-4.4-0.3-6.6-0.4c0-2.5,0-5.1,0-7.6c1.9-1.2,4-0.3,6-0.6
		C124.9,55.5,126.6,58.3,126.1,61.2z"/>
	<path class="st13" d="M119.4,53.2c0,2.5,0,5.1,0,7.6c-1.2,0.5-2.5,1.1-3.7,1.6c-1.5-2.9-0.5-6.1-0.8-9.1
		C116.4,53.3,117.9,53.2,119.4,53.2z"/>
	<path class="st14" d="M109.9,61.5c0,2.6-0.3,5.2,0.1,7.7c0.5,2.9-0.4,4.2-3.3,4.2c-3.5-1.7-5.3-5.6-9.1-7.3c0,2-0.1,3.7,0,5.4
		c0.2,1.6-0.6,2.2-2,2.3c-2.4,0.1-1.7-2.1-2.2-3.3c0-3.1,0-6.3,0-9.4c1.2-0.1,2.4-0.3,3.6-0.4c3.9,0.4,5.4,4.4,8.5,6.2
		c1.4-2.1-1-4.9,1.4-6.4C107.7,60,109.4,59.7,109.9,61.5z"/>
	<path class="st14" d="M100.7,85.9c1.8,2.6-0.8,3.3-2.1,3.9c-3.9,2-8,2.1-12.1,0.3c-2.8-1.8-3.6-4.3-2.6-7.5
		c2.8-4.3,7.3-4.1,11.5-4.6c2.3,0.7,4.6,1.3,5.8,3.7c-0.2,0.3-0.3,0.7-0.5,1c-1.5-0.8-3.3,1.7-4.9-0.7c-1.4-2.1-3.8-1.8-5.5-0.4
		c-1.9,1.5-1.8,4-0.5,5.7c1.4,2,4.1,2,5.6,0.5C97.1,86.3,98.9,86.4,100.7,85.9z"/>
	<path class="st7" d="M101.4,81.8c-1.2-2.4-3.5-3.1-5.8-3.7c0.1-1.4,0.1-2.9,0.2-4.3c1.5-0.1,2.2-0.7,2-2.3c-0.2-1.7,0-3.4,0-5.4
		c3.7,1.8,5.5,5.7,9.1,7.3c-0.3,1.5-0.5,3-0.8,4.4c-1.2,0.7-0.7,2.1-1.1,3.1C103.7,81.2,102.5,81.5,101.4,81.8z"/>
	<path class="st15" d="M148.1,178.3c-0.3,0.5-0.5,1.4-1.1,1c-0.8-0.5,0.2-1.1,0.4-1.6C147.6,177.9,147.9,178.1,148.1,178.3z"/>
	<path class="st15" d="M126.7,175.3c0.1,0.2,0.2,0.4,0.1,0.6c0,0.1-0.2,0.2-0.4,0.4c-0.1-0.2-0.2-0.4-0.2-0.6
		C126.3,175.5,126.5,175.4,126.7,175.3z"/>
	<path class="st4" d="M104.9,80.9c0.4-1-0.1-2.4,1.1-3.1c2,0.1,4,0.1,6,0.2c1.5,0.2,3,0.5,4.5,0.7c2.2,0.9,4.2,2.2,6,3.9
		c0.8,6.1-4,7-8.1,8.6c-1.5,0.6-3.1-1.1-4.6,0.2c-1.7-0.3-3.4-0.6-5.1-1C104.1,87.3,105.6,84.1,104.9,80.9z M116.1,83.1
		c-1.4-2.2-3.9-3.7-5.8-2.2c-1.5,1.2-0.8,4.3-0.4,6.4c0.4,1.9,2.2,0.8,3.5,0.9C117.4,86.5,117.7,85.8,116.1,83.1z"/>
	<path class="st12" d="M122.4,82.6c-1.7-1.7-3.7-3-6-3.9c0.2-1.9,1.8-3.4,1.6-5.5c2.1,1.1,4.4,0.6,6.6,0.8
		C125,77.1,123.7,79.9,122.4,82.6z"/>
	<path class="st7" d="M100.7,85.9c-1.8,0.5-3.6,0.4-5.2,2.1c-1.5,1.5-4.2,1.5-5.6-0.5c-1.2-1.8-1.4-4.2,0.5-5.7
		c1.7-1.4,4.1-1.7,5.5,0.4c1.6,2.3,3.4-0.2,4.9,0.7C100.8,83.8,100.8,84.9,100.7,85.9z"/>
	<path class="st13" d="M118,73.2c0.2,2-1.4,3.6-1.6,5.5c-1.5-0.2-3-0.5-4.5-0.7c-0.5-3.1,1.5-5.7,1.7-8.7
		C114.7,71.1,116.4,72.1,118,73.2z"/>
	<path class="st13" d="M113.4,88.3c-1.2-0.1-3.1,0.9-3.5-0.9c-0.4-2.1-1.2-5.2,0.4-6.4c2-1.5,4.4-0.1,5.8,2.2
		C113.7,84.1,113.5,86.1,113.4,88.3z"/>
	<path class="st12" d="M113.4,88.3c0.1-2.2,0.3-4.2,2.7-5.2C117.7,85.8,117.4,86.5,113.4,88.3z"/>
</g>
</svg>
